<?xml version="1.0" encoding="iso-8859-1"?>
<!-- Uploaded to: SVG Repo, www.svgrepo.com, Generator: SVG Repo Mixer Tools -->
<!DOCTYPE svg PUBLIC "-//W3C//DTD SVG 1.1//EN" "http://www.w3.org/Graphics/SVG/1.1/DTD/svg11.dtd">
<svg fill="#000000" version="1.1" id="Capa_1" xmlns="http://www.w3.org/2000/svg" xmlns:xlink="http://www.w3.org/1999/xlink" 
	 width="800px" height="800px" viewBox="0 0 583.312 583.312"
	 xml:space="preserve">
<g>
	<g>
		<path d="M436.822,363.375c-10.562,0-19.125,8.563-19.125,19.125v181.688c0,10.562,8.563,19.125,19.125,19.125h81.281
			c10.562,0,19.125-8.563,19.125-19.125V382.5c0-10.562-8.563-19.125-19.125-19.125H436.822z"/>
		<path d="M279.041,411.188c-10.562,0-19.125,8.563-19.125,19.125v133.875c0,10.562,8.563,19.125,19.125,19.125h81.281
			c10.562,0,19.125-8.563,19.125-19.125V430.312c0-10.562-8.563-19.125-19.125-19.125H279.041z"/>
		<path d="M121.26,482.906c-10.562,0-19.125,8.563-19.125,19.125v62.156c0,10.562,8.563,19.125,19.125,19.125h81.281
			c10.562,0,19.125-8.563,19.125-19.125v-62.156c0-10.562-8.563-19.125-19.125-19.125H121.26z"/>
		<path d="M32.094,264.475l-19.837,63.931c275.85,85.599,430.968-59.594,504.556-168.338l54.243,26.335L557.668,0l-154.74,104.776
			l53.005,25.732C382.264,235.367,251.836,332.68,32.094,264.475z"/>
	</g>
</g>
</svg>